<svg xmlns="http://www.w3.org/2000/svg" fill="#81CD39" version="1.1" viewBox="-5.0 -10.0 110.0 135.0">
 <path d="m67.98 45.531c0-0.55078 0.44922-1 1-1s1 0.44922 1 1v4.957c1.5586-0.30859 3.1211-0.71094 4.6836-1.2109v-3.7969c0-2.7539-1.125-5.2578-2.9414-7.0742-1.8164-1.8125-4.3203-2.9414-7.0742-2.9414h-4.8047c-2.7539 0-5.2617 1.125-7.0703 2.9375-1.8125 1.8203-2.9414 4.3242-2.9414 7.0742v3.7891c1.5625 0.48828 3.1211 0.88281 4.6836 1.1914v-4.9297c0-0.55078 0.44922-1 1-1s1 0.44922 1 1v5.2773c1.9141 0.28125 3.8242 0.42578 5.7305 0.43359 1.9102 0.003907 3.8203-0.12891 5.7305-0.40625v-5.3008zm-5.7305-31.113c-1.9688 0-3.7539 0.79688-5.043 2.0859-1.2891 1.2891-2.0859 3.0742-2.0859 5.043s0.79688 3.7539 2.0898 5.043c1.2891 1.2891 3.0742 2.0898 5.0391 2.0898 1.9688 0 3.7539-0.80078 5.0664-2.1133 1.2852-1.3125 2.0625-3.0742 2.0625-5.0195 0-1.9688-0.80078-3.75-2.0898-5.0391-1.2891-1.2891-3.0742-2.0898-5.0391-2.0898zm-6.4531 0.67578c1.6562-1.6523 3.9336-2.6758 6.4531-2.6758 2.5234 0 4.8047 1.0234 6.457 2.6758 1.6523 1.6523 2.6758 3.9336 2.6758 6.457 0 2.4883-1 4.7461-2.6445 6.4258-1.6797 1.6836-3.9648 2.707-6.4844 2.707-2.5234 0-4.8047-1.0234-6.457-2.6758-1.6523-1.6523-2.6758-3.9375-2.6758-6.457 0-2.5156 1.0234-4.8008 2.6758-6.4531zm4.0508 18.375h4.8047c3.3047 0 6.3125 1.3516 8.4844 3.5273 2.1758 2.1797 3.5273 5.1836 3.5273 8.4883v4.5195c-0.003906 0.41406-0.26562 0.80469-0.67969 0.94531-4.5703 1.5469-9.1523 2.2969-13.738 2.2852-4.5625-0.011719-9.1211-0.77734-13.664-2.2617-0.43359-0.10938-0.75391-0.50391-0.75391-0.96875v-4.5195c0-3.3047 1.3516-6.3125 3.5273-8.4844 2.1797-2.1758 5.1875-3.5273 8.4844-3.5273zm-13.426-16.133c0.55078 0 1 0.44922 1 1 0 0.55078-0.44922 1-1 1h-22.09c-0.55078 0-1-0.44922-1-1 0-0.55078 0.44922-1 1-1zm29.246 63.332c0.55078 0 1 0.44922 1 1s-0.44922 1-1 1h-33c-0.55078 0-1-0.44922-1-1s0.44922-1 1-1zm0-10.555c0.55078 0 1 0.44922 1 1s-0.44922 1-1 1h-51.332c-0.55078 0-1-0.44922-1-1s0.44922-1 1-1zm0-10.555c0.55078 0 1 0.44922 1 1 0 0.55078-0.44922 1-1 1h-51.332c-0.55078 0-1-0.44922-1-1 0-0.55078 0.44922-1 1-1zm-34.902-10.555c0.55078 0 1 0.44922 1 1 0 0.55078-0.44922 1-1 1h-16.434c-0.55078 0-1-0.44922-1-1 0-0.55078 0.44922-1 1-1zm1.1133-10.559c0.55078 0 1 0.44922 1 1 0 0.55078-0.44922 1-1 1h-17.547c-0.55078 0-1-0.44922-1-1 0-0.55078 0.44922-1 1-1zm6.2422-10.555c0.55078 0 1 0.44922 1 1s-0.44922 1-1 1h-23.789c-0.55078 0-1-0.44922-1-1s0.44922-1 1-1zm-14.262 65.172c-0.74609-2.6055-0.87891-5.3477-1.0117-8.1914-0.078125-1.6445-0.16016-3.332-0.37109-5.0508-1.7188-0.21484-3.4102-0.29297-5.0547-0.37109-2.8438-0.13281-5.582-0.26562-8.1875-1.0117zm-18.562-18.805c3.5703 2.7891 7.7578 2.9883 12.223 3.1992 1.9531 0.09375 3.9648 0.1875 5.9922 0.48438 0.42578 0.0625 0.78125 0.39844 0.84375 0.84375 0.29688 2.0273 0.39453 4.0352 0.48438 5.9883 0.21094 4.4648 0.41016 8.6523 3.1992 12.223h46.668v-94h-69.41z"/>
</svg>