<svg xmlns="http://www.w3.org/2000/svg" fill="#81CD39" viewBox="0 0 24 30" x="0px" y="0px"><title>ui 87</title><g data-name="Layer 2"><path d="M21,1.25H3A1.75213,1.75213,0,0,0,1.25,3V21A1.75213,1.75213,0,0,0,3,22.75H21A1.75213,1.75213,0,0,0,22.75,21V19a.75.75,0,0,0-1.5,0v2a.25048.25048,0,0,1-.25.25H3A.25048.25048,0,0,1,2.75,21V3A.25048.25048,0,0,1,3,2.75H21a.25048.25048,0,0,1,.25.25V16a.75.75,0,0,0,1.5,0V3A1.75213,1.75213,0,0,0,21,1.25Z"/><path d="M18.749,11.99487a.5385.5385,0,0,0-.11816-.376A.73332.73332,0,0,0,18.5,11.44934c-.0083-.00745-.01147-.0188-.02-.026l-6-4.99951a.7499.7499,0,0,0-.96,1.15234L15.9292,11.25H6a.75.75,0,0,0,0,1.5h9.928L11.52,16.42334a.7499.7499,0,1,0,.96,1.15234l6-5c.00781-.00659.01074-.01709.01856-.02392a.74606.74606,0,0,0,.13671-.177.77212.77212,0,0,0,.04688-.06958A.74183.74183,0,0,0,18.75,12v-.00049Z"/></g><text x="0" y="39" fill="#000000" font-size="5px" font-weight="bold" font-family="'Helvetica Neue', Helvetica, Arial-Unicode, Arial, Sans-serif">Created by Anggara Putra</text><text x="0" y="44" fill="#000000" font-size="5px" font-weight="bold" font-family="'Helvetica Neue', Helvetica, Arial-Unicode, Arial, Sans-serif">from the Noun Project</text></svg>