<svg xmlns="http://www.w3.org/2000/svg" version="1.1" fill="#81CD39" viewBox="-5.0 -10.0 110.0 135.0">
 <path d="m6.25 21.59h87.504c1.3594 0 2.5234 0.87891 2.9492 2.0977l-34.305 22.508c-0.11328 0.046876-0.22266 0.11719-0.31641 0.20703l-8.8711 5.8203c-1 0.65625-2.1055 0.98438-3.2109 0.98438s-2.2109-0.32812-3.2109-0.98438l-8.8867-5.832c-0.085938-0.078125-0.17969-0.14062-0.28125-0.18359l-34.316-22.535c0.43359-1.2109 1.5898-2.082 2.9453-2.082zm90.625 4.4727-32.375 21.238 32.035 29.391c0.21875-0.42188 0.33984-0.90234 0.33984-1.4062zm-1.8438 52.07-32.324-29.652-8.3555 5.4805c-1.3477 0.88281-2.8477 1.3242-4.3516 1.3242s-3.0039-0.44141-4.3516-1.3242l-8.3555-5.4844-32.309 29.66c0.38672 0.17188 0.81641 0.26953 1.2656 0.26953h87.504c0.45312 0.003906 0.88672-0.097656 1.2773-0.27344zm-91.562-1.4258 32.035-29.406-32.379-21.258v49.242c0 0.51172 0.125 0.99219 0.34375 1.4219z" fill-rule="evenodd"/>
</svg>